<mxfile host="app.diagrams.net" modified="2023-07-19T00:08:07.077Z" agent="Mozilla/5.0 (Windows NT 10.0; Win64; x64) AppleWebKit/537.36 (KHTML, like Gecko) Chrome/114.0.0.0 Safari/537.36" etag="3fX7B0Jy7Xa8Y2LKWAXd" version="21.6.3" type="device">
  <diagram name="페이지-1" id="XeVyT47t7l7ue6xye4CB">
    <mxGraphModel dx="1434" dy="788" grid="1" gridSize="10" guides="1" tooltips="1" connect="1" arrows="1" fold="1" page="1" pageScale="1" pageWidth="827" pageHeight="1169" math="0" shadow="0">
      <root>
        <mxCell id="0" />
        <mxCell id="1" parent="0" />
        <mxCell id="6Gz-KP7oJSOam5FWT2SU-23" style="edgeStyle=orthogonalEdgeStyle;rounded=0;orthogonalLoop=1;jettySize=auto;html=1;exitX=1;exitY=0.5;exitDx=0;exitDy=0;entryX=0;entryY=0.5;entryDx=0;entryDy=0;" edge="1" parent="1" source="6Gz-KP7oJSOam5FWT2SU-3" target="6Gz-KP7oJSOam5FWT2SU-4">
          <mxGeometry relative="1" as="geometry" />
        </mxCell>
        <mxCell id="6Gz-KP7oJSOam5FWT2SU-3" value="Unit" style="rounded=1;whiteSpace=wrap;html=1;strokeWidth=3;fontSize=20;fontStyle=1" vertex="1" parent="1">
          <mxGeometry x="20" y="270" width="120" height="50" as="geometry" />
        </mxCell>
        <mxCell id="6Gz-KP7oJSOam5FWT2SU-24" style="edgeStyle=orthogonalEdgeStyle;rounded=0;orthogonalLoop=1;jettySize=auto;html=1;exitX=1;exitY=0.5;exitDx=0;exitDy=0;entryX=0;entryY=0.5;entryDx=0;entryDy=0;" edge="1" parent="1" target="6Gz-KP7oJSOam5FWT2SU-6">
          <mxGeometry relative="1" as="geometry">
            <mxPoint x="260" y="295" as="sourcePoint" />
            <Array as="points">
              <mxPoint x="260" y="296" />
              <mxPoint x="380" y="296" />
              <mxPoint x="380" y="95" />
            </Array>
          </mxGeometry>
        </mxCell>
        <mxCell id="6Gz-KP7oJSOam5FWT2SU-25" style="edgeStyle=orthogonalEdgeStyle;rounded=0;orthogonalLoop=1;jettySize=auto;html=1;entryX=0;entryY=0.5;entryDx=0;entryDy=0;" edge="1" parent="1" target="6Gz-KP7oJSOam5FWT2SU-7">
          <mxGeometry relative="1" as="geometry">
            <mxPoint x="260" y="295" as="sourcePoint" />
          </mxGeometry>
        </mxCell>
        <mxCell id="6Gz-KP7oJSOam5FWT2SU-26" style="edgeStyle=orthogonalEdgeStyle;rounded=0;orthogonalLoop=1;jettySize=auto;html=1;exitX=1;exitY=0.5;exitDx=0;exitDy=0;entryX=0;entryY=0.5;entryDx=0;entryDy=0;" edge="1" parent="1" target="6Gz-KP7oJSOam5FWT2SU-8">
          <mxGeometry relative="1" as="geometry">
            <mxPoint x="260" y="295" as="sourcePoint" />
            <Array as="points">
              <mxPoint x="260" y="296" />
              <mxPoint x="380" y="296" />
              <mxPoint x="380" y="495" />
            </Array>
          </mxGeometry>
        </mxCell>
        <mxCell id="6Gz-KP7oJSOam5FWT2SU-4" value="Tower" style="rounded=1;whiteSpace=wrap;html=1;strokeWidth=3;fontSize=20;fontStyle=1" vertex="1" parent="1">
          <mxGeometry x="210" y="270" width="120" height="50" as="geometry" />
        </mxCell>
        <mxCell id="6Gz-KP7oJSOam5FWT2SU-36" style="edgeStyle=orthogonalEdgeStyle;rounded=0;orthogonalLoop=1;jettySize=auto;html=1;exitX=1;exitY=0.5;exitDx=0;exitDy=0;entryX=0;entryY=0.5;entryDx=0;entryDy=0;" edge="1" parent="1" source="6Gz-KP7oJSOam5FWT2SU-5" target="6Gz-KP7oJSOam5FWT2SU-20">
          <mxGeometry relative="1" as="geometry" />
        </mxCell>
        <mxCell id="6Gz-KP7oJSOam5FWT2SU-37" style="edgeStyle=orthogonalEdgeStyle;rounded=0;orthogonalLoop=1;jettySize=auto;html=1;exitX=1;exitY=0.5;exitDx=0;exitDy=0;entryX=0;entryY=0.5;entryDx=0;entryDy=0;" edge="1" parent="1" source="6Gz-KP7oJSOam5FWT2SU-5" target="6Gz-KP7oJSOam5FWT2SU-21">
          <mxGeometry relative="1" as="geometry" />
        </mxCell>
        <mxCell id="6Gz-KP7oJSOam5FWT2SU-38" style="edgeStyle=orthogonalEdgeStyle;rounded=0;orthogonalLoop=1;jettySize=auto;html=1;exitX=1;exitY=0.5;exitDx=0;exitDy=0;entryX=0;entryY=0.5;entryDx=0;entryDy=0;" edge="1" parent="1" source="6Gz-KP7oJSOam5FWT2SU-5" target="6Gz-KP7oJSOam5FWT2SU-22">
          <mxGeometry relative="1" as="geometry" />
        </mxCell>
        <mxCell id="6Gz-KP7oJSOam5FWT2SU-39" style="edgeStyle=orthogonalEdgeStyle;rounded=0;orthogonalLoop=1;jettySize=auto;html=1;exitX=1;exitY=0.5;exitDx=0;exitDy=0;entryX=0;entryY=0.5;entryDx=0;entryDy=0;" edge="1" parent="1" source="6Gz-KP7oJSOam5FWT2SU-5" target="6Gz-KP7oJSOam5FWT2SU-18">
          <mxGeometry relative="1" as="geometry" />
        </mxCell>
        <mxCell id="6Gz-KP7oJSOam5FWT2SU-40" style="edgeStyle=orthogonalEdgeStyle;rounded=0;orthogonalLoop=1;jettySize=auto;html=1;exitX=1;exitY=0.5;exitDx=0;exitDy=0;entryX=0;entryY=0.5;entryDx=0;entryDy=0;" edge="1" parent="1" source="6Gz-KP7oJSOam5FWT2SU-5" target="6Gz-KP7oJSOam5FWT2SU-19">
          <mxGeometry relative="1" as="geometry" />
        </mxCell>
        <mxCell id="6Gz-KP7oJSOam5FWT2SU-5" value="Enemy" style="rounded=1;whiteSpace=wrap;html=1;strokeWidth=3;fontSize=20;fontStyle=1" vertex="1" parent="1">
          <mxGeometry x="210" y="730" width="120" height="50" as="geometry" />
        </mxCell>
        <mxCell id="6Gz-KP7oJSOam5FWT2SU-45" style="edgeStyle=orthogonalEdgeStyle;rounded=0;orthogonalLoop=1;jettySize=auto;html=1;exitX=1;exitY=0.5;exitDx=0;exitDy=0;entryX=0;entryY=0.5;entryDx=0;entryDy=0;" edge="1" parent="1" source="6Gz-KP7oJSOam5FWT2SU-6" target="6Gz-KP7oJSOam5FWT2SU-9">
          <mxGeometry relative="1" as="geometry" />
        </mxCell>
        <mxCell id="6Gz-KP7oJSOam5FWT2SU-46" style="edgeStyle=orthogonalEdgeStyle;rounded=0;orthogonalLoop=1;jettySize=auto;html=1;exitX=1;exitY=0.5;exitDx=0;exitDy=0;entryX=0;entryY=0.5;entryDx=0;entryDy=0;" edge="1" parent="1" source="6Gz-KP7oJSOam5FWT2SU-6" target="6Gz-KP7oJSOam5FWT2SU-10">
          <mxGeometry relative="1" as="geometry" />
        </mxCell>
        <mxCell id="6Gz-KP7oJSOam5FWT2SU-47" style="edgeStyle=orthogonalEdgeStyle;rounded=0;orthogonalLoop=1;jettySize=auto;html=1;exitX=1;exitY=0.5;exitDx=0;exitDy=0;entryX=0;entryY=0.5;entryDx=0;entryDy=0;" edge="1" parent="1" source="6Gz-KP7oJSOam5FWT2SU-6" target="6Gz-KP7oJSOam5FWT2SU-11">
          <mxGeometry relative="1" as="geometry" />
        </mxCell>
        <mxCell id="6Gz-KP7oJSOam5FWT2SU-6" value="Nemo" style="rounded=1;whiteSpace=wrap;html=1;strokeWidth=3;fontSize=20;fontStyle=1" vertex="1" parent="1">
          <mxGeometry x="430" y="70" width="120" height="50" as="geometry" />
        </mxCell>
        <mxCell id="6Gz-KP7oJSOam5FWT2SU-48" style="edgeStyle=orthogonalEdgeStyle;rounded=0;orthogonalLoop=1;jettySize=auto;html=1;exitX=1;exitY=0.5;exitDx=0;exitDy=0;entryX=0;entryY=0.5;entryDx=0;entryDy=0;" edge="1" parent="1" source="6Gz-KP7oJSOam5FWT2SU-7" target="6Gz-KP7oJSOam5FWT2SU-12">
          <mxGeometry relative="1" as="geometry" />
        </mxCell>
        <mxCell id="6Gz-KP7oJSOam5FWT2SU-49" style="edgeStyle=orthogonalEdgeStyle;rounded=0;orthogonalLoop=1;jettySize=auto;html=1;exitX=1;exitY=0.5;exitDx=0;exitDy=0;entryX=0;entryY=0.5;entryDx=0;entryDy=0;" edge="1" parent="1" source="6Gz-KP7oJSOam5FWT2SU-7" target="6Gz-KP7oJSOam5FWT2SU-13">
          <mxGeometry relative="1" as="geometry" />
        </mxCell>
        <mxCell id="6Gz-KP7oJSOam5FWT2SU-50" style="edgeStyle=orthogonalEdgeStyle;rounded=0;orthogonalLoop=1;jettySize=auto;html=1;exitX=1;exitY=0.5;exitDx=0;exitDy=0;entryX=0;entryY=0.5;entryDx=0;entryDy=0;" edge="1" parent="1" source="6Gz-KP7oJSOam5FWT2SU-7" target="6Gz-KP7oJSOam5FWT2SU-14">
          <mxGeometry relative="1" as="geometry" />
        </mxCell>
        <mxCell id="6Gz-KP7oJSOam5FWT2SU-7" value="Dongrami" style="rounded=1;whiteSpace=wrap;html=1;strokeWidth=3;fontSize=20;fontStyle=1" vertex="1" parent="1">
          <mxGeometry x="430" y="270" width="120" height="50" as="geometry" />
        </mxCell>
        <mxCell id="6Gz-KP7oJSOam5FWT2SU-51" style="edgeStyle=orthogonalEdgeStyle;rounded=0;orthogonalLoop=1;jettySize=auto;html=1;exitX=1;exitY=0.5;exitDx=0;exitDy=0;entryX=0;entryY=0.5;entryDx=0;entryDy=0;" edge="1" parent="1" source="6Gz-KP7oJSOam5FWT2SU-8" target="6Gz-KP7oJSOam5FWT2SU-15">
          <mxGeometry relative="1" as="geometry" />
        </mxCell>
        <mxCell id="6Gz-KP7oJSOam5FWT2SU-52" style="edgeStyle=orthogonalEdgeStyle;rounded=0;orthogonalLoop=1;jettySize=auto;html=1;exitX=1;exitY=0.5;exitDx=0;exitDy=0;entryX=0;entryY=0.5;entryDx=0;entryDy=0;" edge="1" parent="1" source="6Gz-KP7oJSOam5FWT2SU-8" target="6Gz-KP7oJSOam5FWT2SU-16">
          <mxGeometry relative="1" as="geometry" />
        </mxCell>
        <mxCell id="6Gz-KP7oJSOam5FWT2SU-53" style="edgeStyle=orthogonalEdgeStyle;rounded=0;orthogonalLoop=1;jettySize=auto;html=1;exitX=1;exitY=0.5;exitDx=0;exitDy=0;entryX=0;entryY=0.5;entryDx=0;entryDy=0;" edge="1" parent="1" source="6Gz-KP7oJSOam5FWT2SU-8" target="6Gz-KP7oJSOam5FWT2SU-17">
          <mxGeometry relative="1" as="geometry" />
        </mxCell>
        <mxCell id="6Gz-KP7oJSOam5FWT2SU-8" value="Semo" style="rounded=1;whiteSpace=wrap;html=1;strokeWidth=3;fontSize=20;fontStyle=1" vertex="1" parent="1">
          <mxGeometry x="430" y="470" width="120" height="50" as="geometry" />
        </mxCell>
        <mxCell id="6Gz-KP7oJSOam5FWT2SU-9" value="N - Cri" style="rounded=1;whiteSpace=wrap;html=1;strokeWidth=3;fontSize=20;fontStyle=1" vertex="1" parent="1">
          <mxGeometry x="610" y="10" width="120" height="50" as="geometry" />
        </mxCell>
        <mxCell id="6Gz-KP7oJSOam5FWT2SU-10" value="N - Stun" style="rounded=1;whiteSpace=wrap;html=1;strokeWidth=3;fontSize=20;fontStyle=1" vertex="1" parent="1">
          <mxGeometry x="610" y="70" width="120" height="50" as="geometry" />
        </mxCell>
        <mxCell id="6Gz-KP7oJSOam5FWT2SU-11" value="N - Power" style="rounded=1;whiteSpace=wrap;html=1;strokeWidth=3;fontSize=20;fontStyle=1" vertex="1" parent="1">
          <mxGeometry x="610" y="130" width="120" height="50" as="geometry" />
        </mxCell>
        <mxCell id="6Gz-KP7oJSOam5FWT2SU-12" value="D - Range" style="rounded=1;whiteSpace=wrap;html=1;strokeWidth=3;fontSize=20;fontStyle=1" vertex="1" parent="1">
          <mxGeometry x="610" y="210" width="120" height="50" as="geometry" />
        </mxCell>
        <mxCell id="6Gz-KP7oJSOam5FWT2SU-13" value="D - Area" style="rounded=1;whiteSpace=wrap;html=1;strokeWidth=3;fontSize=20;fontStyle=1" vertex="1" parent="1">
          <mxGeometry x="610" y="270" width="120" height="50" as="geometry" />
        </mxCell>
        <mxCell id="6Gz-KP7oJSOam5FWT2SU-14" value="D - Power" style="rounded=1;whiteSpace=wrap;html=1;strokeWidth=3;fontSize=20;fontStyle=1" vertex="1" parent="1">
          <mxGeometry x="610" y="330" width="120" height="50" as="geometry" />
        </mxCell>
        <mxCell id="6Gz-KP7oJSOam5FWT2SU-15" value="S - Speed" style="rounded=1;whiteSpace=wrap;html=1;strokeWidth=3;fontSize=20;fontStyle=1" vertex="1" parent="1">
          <mxGeometry x="610" y="410" width="120" height="50" as="geometry" />
        </mxCell>
        <mxCell id="6Gz-KP7oJSOam5FWT2SU-16" value="S - Slow" style="rounded=1;whiteSpace=wrap;html=1;strokeWidth=3;fontSize=20;fontStyle=1" vertex="1" parent="1">
          <mxGeometry x="610" y="470" width="120" height="50" as="geometry" />
        </mxCell>
        <mxCell id="6Gz-KP7oJSOam5FWT2SU-17" value="S - Power" style="rounded=1;whiteSpace=wrap;html=1;strokeWidth=3;fontSize=20;fontStyle=1" vertex="1" parent="1">
          <mxGeometry x="610" y="530" width="120" height="50" as="geometry" />
        </mxCell>
        <mxCell id="6Gz-KP7oJSOam5FWT2SU-18" value="E - Elite" style="rounded=1;whiteSpace=wrap;html=1;strokeWidth=3;fontSize=20;fontStyle=1" vertex="1" parent="1">
          <mxGeometry x="430" y="800" width="120" height="50" as="geometry" />
        </mxCell>
        <mxCell id="6Gz-KP7oJSOam5FWT2SU-19" value="E - Boss" style="rounded=1;whiteSpace=wrap;html=1;strokeWidth=3;fontSize=20;fontStyle=1" vertex="1" parent="1">
          <mxGeometry x="430" y="870" width="120" height="50" as="geometry" />
        </mxCell>
        <mxCell id="6Gz-KP7oJSOam5FWT2SU-20" value="E - Nomal" style="rounded=1;whiteSpace=wrap;html=1;strokeWidth=3;fontSize=20;fontStyle=1" vertex="1" parent="1">
          <mxGeometry x="430" y="590" width="120" height="50" as="geometry" />
        </mxCell>
        <mxCell id="6Gz-KP7oJSOam5FWT2SU-21" value="E -Speed" style="rounded=1;whiteSpace=wrap;html=1;strokeWidth=3;fontSize=20;fontStyle=1" vertex="1" parent="1">
          <mxGeometry x="430" y="660" width="120" height="50" as="geometry" />
        </mxCell>
        <mxCell id="6Gz-KP7oJSOam5FWT2SU-22" value="E - Tank" style="rounded=1;whiteSpace=wrap;html=1;strokeWidth=3;fontSize=20;fontStyle=1" vertex="1" parent="1">
          <mxGeometry x="430" y="730" width="120" height="50" as="geometry" />
        </mxCell>
        <mxCell id="6Gz-KP7oJSOam5FWT2SU-41" value="T - Atk" style="rounded=1;whiteSpace=wrap;html=1;strokeWidth=3;fontSize=20;fontStyle=1" vertex="1" parent="1">
          <mxGeometry x="225" y="330" width="90" height="30" as="geometry" />
        </mxCell>
        <mxCell id="6Gz-KP7oJSOam5FWT2SU-43" value="T - Evol" style="rounded=1;whiteSpace=wrap;html=1;strokeWidth=3;fontSize=20;fontStyle=1" vertex="1" parent="1">
          <mxGeometry x="228" y="370" width="85" height="30" as="geometry" />
        </mxCell>
      </root>
    </mxGraphModel>
  </diagram>
</mxfile>
